<?xml version="1.0" standalone="no"?><!DOCTYPE svg PUBLIC "-//W3C//DTD SVG 1.1//EN" "http://www.w3.org/Graphics/SVG/1.1/DTD/svg11.dtd"><svg t="1695648004335" class="icon" viewBox="0 0 1024 1024" version="1.1" xmlns="http://www.w3.org/2000/svg" p-id="1181" xmlns:xlink="http://www.w3.org/1999/xlink" width="200" height="200"><path d="M512 85.504c188.416 0 341.504 152.576 341.504 341.504 0 113.152-92.672 274.944-277.504 484.352-31.232 35.328-84.992 38.912-120.32 7.68-2.56-2.56-5.12-4.608-7.68-7.68-184.832-209.92-277.504-371.2-277.504-484.864 0-188.416 153.088-340.992 341.504-340.992z m0 64c-153.088 0-277.504 123.904-277.504 277.504 0 93.184 86.016 243.2 261.12 441.856l0.512 0.512 1.536 1.536c7.168 6.656 17.92 7.168 26.112 1.536l2.048-1.536 1.024-1.024 0.512-0.512-0.512 0.512 1.024-1.024c172.544-195.072 258.56-344.064 261.12-437.248v-4.608c0.512-153.6-123.904-277.504-276.992-277.504z m0 106.496c94.208 0 170.496 76.288 170.496 170.496s-76.288 170.496-170.496 170.496-170.496-76.288-170.496-170.496S417.792 256 512 256z m0 64c-58.88 0-106.496 47.616-106.496 106.496s47.616 106.496 106.496 106.496 106.496-47.616 106.496-106.496-47.616-106.496-106.496-106.496z" p-id="1182"></path></svg>