<?xml version="1.0" standalone="no"?><!DOCTYPE svg PUBLIC "-//W3C//DTD SVG 1.1//EN" "http://www.w3.org/Graphics/SVG/1.1/DTD/svg11.dtd"><svg t="1695647999352" class="icon" viewBox="0 0 1024 1024" version="1.1" xmlns="http://www.w3.org/2000/svg" p-id="1036" xmlns:xlink="http://www.w3.org/1999/xlink" width="200" height="200"><path d="M651.264 142.336c45.568 0 88.064 24.576 111.104 64l139.264 241.664c23.04 39.424 23.04 88.576 0 128l-139.264 241.664c-23.04 39.424-65.024 64-111.104 64H372.736c-45.568 0-88.064-24.576-111.104-64l-139.264-241.664c-23.04-39.424-23.04-88.576 0-128l139.264-241.664c23.04-39.424 65.024-64 111.104-64h278.528z m0 64H372.736c-23.04 0-44.032 12.288-55.296 31.744L177.664 480.256c-11.264 19.968-11.264 44.032 0 64l139.264 241.664c11.264 19.968 32.768 31.744 55.296 31.744h279.04c23.04 0 44.032-12.288 55.296-31.744l139.264-241.664c11.264-19.968 11.264-44.032 0-64L706.56 238.592c-11.264-19.968-32.256-32.256-55.296-32.256zM512 394.752c65.024 0 117.248 52.736 117.248 117.248 0 65.024-52.736 117.248-117.248 117.248-65.024 0-117.248-52.736-117.248-117.248S446.976 394.752 512 394.752z m0 64c-29.696 0-53.248 24.064-53.248 53.248 0 29.696 24.064 53.248 53.248 53.248 29.696 0 53.248-24.064 53.248-53.248 0-29.696-24.064-53.248-53.248-53.248z"  p-id="1037"></path></svg>